<mxfile host="app.diagrams.net" modified="2023-08-31T22:56:53.914Z" agent="Mozilla/5.0 (Windows NT 6.1; rv:89.0) Gecko/20100101 Firefox/89.0" version="21.7.1" etag="Atc6JmcZCTQcm2r-wmun" type="github">
  <diagram name="PÃ¡gina-1" id="Qt9Rf25VEYa0KAzSh_Hk">
    <mxGraphModel>
      <root>
        <mxCell id="0" />
        <mxCell id="1" parent="0" />
      </root>
    </mxGraphModel>
  </diagram>
</mxfile>
